<?xml version="1.0" standalone="no"?>
<!DOCTYPE svg PUBLIC "-//W3C//DTD SVG 20010904//EN"
 "http://www.w3.org/TR/2001/REC-SVG-20010904/DTD/svg10.dtd">
<svg version="1.0" xmlns="http://www.w3.org/2000/svg"
 width="512.000000pt" height="512.000000pt" viewBox="0 0 512.000000 512.000000"
 preserveAspectRatio="xMidYMid meet">
<metadata>
Created by potrace 1.14, written by Peter Selinger 2001-2017
</metadata>
<g transform="translate(0.000000,512.000000) scale(0.100000,-0.100000)"
fill="#000000" stroke="none">
<path d="M913 5089 c-92 -46 -127 -112 -168 -309 -19 -91 -25 -280 -13 -388
15 -131 69 -291 144 -427 l36 -66 -26 -52 c-52 -107 -89 -227 -121 -392 -13
-64 -13 -283 0 -362 48 -299 203 -540 469 -732 l86 -62 -17 -32 c-12 -22 -17
-56 -18 -112 0 -77 -1 -80 -35 -115 -36 -37 -99 -144 -121 -205 -7 -19 -33
-56 -57 -82 -24 -27 -83 -93 -131 -148 -47 -55 -94 -109 -105 -120 -44 -47
-249 -329 -316 -435 -114 -179 -200 -353 -200 -403 0 -65 28 -106 96 -143 32
-18 70 -44 84 -58 35 -36 88 -55 138 -50 24 2 101 -7 170 -20 70 -14 143 -27
162 -30 81 -11 183 -22 235 -25 19 -1 21 -8 22 -70 0 -56 5 -78 26 -114 71
-120 205 -163 328 -104 70 33 133 70 137 80 2 4 10 7 18 7 8 0 14 4 14 8 0 5
11 14 24 20 13 5 68 46 122 90 55 43 106 79 114 79 21 0 208 13 250 18 19 2
69 7 111 10 l77 6 -13 -37 c-25 -74 -1 -174 58 -237 64 -70 196 -94 282 -53
87 42 219 192 290 330 61 119 93 238 99 370 4 76 6 80 38 104 61 47 184 176
232 244 80 114 149 285 163 403 3 22 10 45 16 52 7 6 48 26 92 44 104 42 352
169 485 249 134 80 379 242 416 275 6 6 25 21 43 35 18 13 45 47 59 75 34 65
35 160 4 222 -42 81 -148 145 -228 137 l-32 -3 39 67 c164 281 188 675 62
1033 l-16 45 40 55 c108 144 194 359 218 544 10 75 7 262 -5 330 -6 33 -13 74
-16 90 -9 52 -44 114 -83 144 -66 53 -98 60 -276 66 -117 4 -157 2 -290 -20
-129 -21 -338 -116 -463 -210 -40 -30 -76 -55 -79 -55 -3 0 -53 18 -112 40
-98 36 -251 82 -311 93 -258 48 -295 52 -530 51 -134 -1 -229 -7 -305 -19
-136 -21 -131 -21 -180 -33 -22 -6 -51 -13 -65 -16 -14 -2 -46 -11 -71 -19
l-46 -14 -54 52 c-111 106 -270 208 -399 254 -19 7 -44 17 -55 21 -24 10 -134
36 -190 45 -22 4 -97 8 -167 10 -124 4 -129 3 -185 -26z"/>
</g>
</svg>
