<?xml version="1.0" standalone="no"?>
<!DOCTYPE svg PUBLIC "-//W3C//DTD SVG 20010904//EN"
 "http://www.w3.org/TR/2001/REC-SVG-20010904/DTD/svg10.dtd">
<svg version="1.0" xmlns="http://www.w3.org/2000/svg"
 width="512.000000pt" height="512.000000pt" viewBox="0 0 512.000000 512.000000"
 preserveAspectRatio="xMidYMid meet">
<metadata>
Created by potrace 1.14, written by Peter Selinger 2001-2017
</metadata>
<g transform="translate(0.000000,512.000000) scale(0.100000,-0.100000)"
fill="#000000" stroke="none">
<path d="M947 5101 c-138 -45 -219 -132 -251 -271 -21 -89 -22 -4430 -1 -4531
23 -115 74 -188 167 -243 100 -58 66 -57 998 -52 470 2 871 6 890 10 19 3 60
8 90 11 119 12 213 29 335 61 146 37 185 49 285 89 571 226 892 624 969 1205
13 96 5 362 -13 461 -34 188 -117 382 -226 528 -125 168 -260 279 -450 370
l-100 48 74 57 c219 168 369 428 412 714 3 20 7 48 10 62 7 37 6 267 -2 325
-9 76 -11 84 -28 168 -30 139 -92 281 -180 412 -54 81 -205 230 -291 287 -143
94 -384 197 -535 229 -163 34 -212 42 -320 54 -30 3 -71 8 -90 11 -19 4 -406
8 -860 10 -788 3 -828 3 -883 -15z m1463 -935 c47 -3 96 -8 110 -11 14 -4 45
-11 70 -16 64 -15 179 -74 223 -115 109 -104 157 -303 120 -502 -45 -238 -215
-390 -468 -417 -74 -8 -559 -14 -586 -7 -15 3 -17 51 -17 535 l0 532 42 5 c51
6 392 4 506 -4z m145 -2010 c225 -20 377 -80 492 -193 55 -55 75 -83 100 -143
65 -156 74 -343 23 -487 -22 -62 -79 -151 -126 -196 -74 -70 -213 -136 -319
-153 -22 -3 -44 -9 -50 -12 -5 -3 -190 -7 -410 -8 l-401 -1 -2 90 c-1 102 -16
134 -69 152 l-30 10 0 127 c-1 71 2 126 6 124 14 -9 69 26 80 50 26 58 4 115
-54 140 l-33 13 2 122 c1 114 2 122 21 125 11 2 32 17 48 34 28 31 30 43 28
165 l0 50 307 -1 c169 -1 343 -4 387 -8z"/>
</g>
</svg>
