<?xml version="1.0" standalone="no"?>
<!DOCTYPE svg PUBLIC "-//W3C//DTD SVG 20010904//EN"
 "http://www.w3.org/TR/2001/REC-SVG-20010904/DTD/svg10.dtd">
<svg version="1.0" xmlns="http://www.w3.org/2000/svg"
 width="512.000000pt" height="512.000000pt" viewBox="0 0 512.000000 512.000000"
 preserveAspectRatio="xMidYMid meet">
<metadata>
Created by potrace 1.11, written by Peter Selinger 2001-2013
</metadata>
<g transform="translate(0.000000,512.000000) scale(0.100000,-0.100000)"
fill="#000000" stroke="none">
<path d="M3515 4958 c-146 -51 -254 -165 -297 -313 -27 -94 -12 -246 32 -322
11 -18 16 -34 12 -34 -15 -3 -50 -7 -122 -13 -41 -4 -95 -9 -120 -11 -76 -7
-162 -15 -230 -20 -61 -5 -121 -10 -230 -20 -25 -2 -74 -7 -110 -10 -36 -3
-85 -8 -110 -10 -25 -2 -81 -7 -125 -10 -44 -3 -96 -8 -115 -10 -178 -23 -270
-23 -485 0 -83 8 -295 27 -465 40 -36 3 -87 8 -115 10 -137 14 -219 21 -340
30 -44 3 -93 8 -110 10 -16 2 -66 7 -110 10 -44 4 -92 8 -108 10 -15 1 -29 0
-31 -4 -2 -3 -7 -47 -10 -97 -4 -49 -8 -101 -11 -115 -2 -13 -6 -64 -10 -114
-3 -49 -8 -106 -10 -125 -2 -19 -7 -69 -10 -110 -3 -41 -8 -91 -10 -110 -2
-19 -6 -73 -10 -120 -3 -47 -8 -101 -10 -120 -4 -35 -9 -90 -20 -230 -4 -41
-8 -91 -10 -110 -2 -19 -6 -69 -10 -110 -3 -41 -8 -91 -10 -110 -2 -19 -7 -73
-10 -120 -4 -47 -8 -96 -10 -110 -2 -14 -7 -70 -10 -125 -4 -55 -9 -107 -10
-116 -2 -9 -6 -54 -9 -100 -4 -46 -8 -104 -11 -129 -5 -49 -13 -145 -20 -225
-2 -27 -7 -77 -10 -110 -4 -33 -8 -83 -10 -110 -2 -28 -6 -78 -9 -110 -3 -33
-8 -89 -11 -125 -3 -36 -7 -85 -10 -110 -2 -25 -9 -101 -15 -170 -6 -69 -13
-145 -15 -170 -3 -25 -7 -76 -10 -115 -3 -38 -7 -90 -10 -115 -2 -25 -7 -76
-10 -115 -3 -38 -8 -94 -10 -122 l-4 -53 34 -1 c19 -1 38 -2 43 -3 4 -1 52 -6
107 -11 107 -9 105 -9 240 -19 50 -4 101 -9 115 -11 14 -2 63 -6 110 -10 47
-3 101 -8 120 -10 19 -3 69 -7 110 -10 41 -3 98 -8 125 -10 28 -3 79 -7 115
-10 101 -8 154 -15 162 -24 5 -4 9 -26 10 -49 l1 -42 51 5 c28 2 85 7 126 10
41 4 91 8 110 10 19 2 78 7 130 10 52 4 118 11 147 15 29 3 50 3 47 -2 -3 -4
0 -8 5 -8 6 0 11 6 11 13 0 9 2 9 8 1 4 -7 45 -15 92 -18 47 -4 101 -9 120
-11 19 -2 62 -6 95 -9 33 -3 85 -8 115 -11 30 -2 91 -7 135 -10 44 -3 96 -8
115 -10 19 -3 64 -7 100 -10 36 -3 88 -7 115 -10 28 -2 84 -7 125 -10 41 -3
95 -8 120 -11 25 -2 70 -6 100 -9 153 -13 179 -15 230 -20 66 -6 155 -13 230
-20 30 -2 87 -7 126 -11 40 -3 74 -2 77 3 3 4 8 53 12 108 4 55 9 108 11 118
2 10 4 39 5 65 2 36 6 48 18 48 28 1 195 14 231 19 19 2 71 7 115 10 44 4 94
8 110 10 17 3 66 7 110 10 44 3 100 7 125 10 56 6 134 13 225 20 39 3 90 8
115 10 25 2 81 7 125 11 44 3 83 8 87 10 4 3 5 28 3 57 -11 127 -20 239 -30
340 -7 76 -13 147 -20 232 -10 120 -14 168 -20 225 -3 30 -7 82 -10 115 -3 33
-7 83 -10 110 -5 51 -13 148 -20 240 -2 28 -6 75 -9 105 -9 89 -15 160 -21
245 -3 44 -8 96 -11 115 -2 19 -6 67 -9 105 -3 39 -7 90 -10 115 -5 46 -20
224 -30 340 -5 66 -12 139 -20 220 -2 25 -7 77 -10 115 -3 39 -7 93 -10 120
-2 28 -7 82 -10 120 -3 39 -8 88 -10 110 -5 47 -13 143 -20 235 -3 36 -7 83
-10 105 -2 22 -7 76 -10 120 -4 44 -8 96 -10 115 -3 19 -7 73 -11 120 -4 47
-9 88 -11 93 -2 4 -23 5 -46 2 -23 -2 -73 -7 -112 -10 -115 -9 -293 -24 -360
-31 -27 -2 -76 -7 -108 -9 -32 -3 -62 -7 -68 -10 -11 -8 -12 -9 6 50 16 50 20
155 10 210 -29 145 -144 281 -285 336 -80 32 -224 35 -305 7z"/>
</g>
</svg>
