<?xml version="1.0" standalone="no"?>
<!DOCTYPE svg PUBLIC "-//W3C//DTD SVG 20010904//EN"
 "http://www.w3.org/TR/2001/REC-SVG-20010904/DTD/svg10.dtd">
<svg version="1.0" xmlns="http://www.w3.org/2000/svg"
 width="512.000000pt" height="512.000000pt" viewBox="0 0 512.000000 512.000000"
 preserveAspectRatio="xMidYMid meet">
<metadata>
Created by potrace 1.14, written by Peter Selinger 2001-2017
</metadata>
<g transform="translate(0.000000,512.000000) scale(0.100000,-0.100000)"
fill="#000000" stroke="none">
<path d="M1772 4343 c-72 -35 -76 -142 -6 -188 27 -17 62 -18 749 -18 686 0
722 1 749 18 29 19 57 69 53 96 -5 32 -29 76 -50 89 -32 22 -1451 24 -1495 3z"/>
<path d="M4200 4189 c-142 -36 -346 -160 -371 -226 -26 -68 7 -137 71 -152 46
-10 62 -4 146 60 120 91 232 126 367 116 211 -15 393 -157 459 -356 50 -150
26 -325 -63 -456 -72 -107 -198 -193 -321 -218 -54 -12 -346 -14 -1608 -14
-1519 0 -1542 -1 -1568 -20 -15 -11 -33 -38 -41 -59 -12 -35 -12 -44 3 -76 34
-71 -88 -66 1646 -64 861 2 1581 6 1600 10 296 66 529 300 585 589 20 102 13
263 -15 352 -84 268 -297 463 -568 519 -95 20 -232 18 -322 -5z"/>
<path d="M93 3629 c-56 -11 -93 -51 -93 -98 0 -34 21 -76 48 -96 27 -20 43
-20 1312 -21 1027 -1 1291 2 1317 12 85 34 88 162 5 196 -29 12 -2534 19
-2589 7z"/>
<path d="M560 2939 c-66 -14 -102 -78 -80 -143 19 -59 48 -70 185 -72 85 -1
128 2 147 12 75 39 79 145 7 188 -31 18 -196 28 -259 15z"/>
<path d="M64 2240 c-12 -5 -32 -23 -44 -40 -20 -28 -22 -38 -14 -78 6 -32 17
-51 37 -66 28 -21 30 -21 1200 -26 l1172 -5 70 -29 c207 -85 336 -270 336
-481 0 -84 -1 -94 -22 -166 -51 -174 -224 -328 -403 -357 -72 -11 -172 -6
-241 13 -61 16 -125 53 -244 140 -39 29 -72 32 -110 9 -55 -32 -74 -100 -42
-151 25 -39 117 -113 191 -152 403 -214 907 -15 1054 417 125 366 -56 770
-410 921 -148 63 -109 61 -1366 60 -629 0 -1153 -4 -1164 -9z"/>
<path d="M3400 2239 c-55 -20 -79 -108 -43 -157 38 -51 40 -52 494 -52 l424
-1 60 -29 c72 -35 122 -82 153 -144 79 -157 13 -349 -147 -428 -38 -19 -62
-23 -136 -22 -98 0 -132 12 -209 73 -47 37 -74 45 -121 37 -65 -13 -100 -101
-62 -159 23 -35 93 -91 153 -121 181 -91 414 -69 563 51 202 164 266 405 169
638 -62 148 -201 267 -363 309 -50 13 -133 15 -485 15 -242 0 -436 -4 -450
-10z"/>
</g>
</svg>
