<?xml version="1.0" standalone="no"?>
<!DOCTYPE svg PUBLIC "-//W3C//DTD SVG 20010904//EN"
 "http://www.w3.org/TR/2001/REC-SVG-20010904/DTD/svg10.dtd">
<svg version="1.0" xmlns="http://www.w3.org/2000/svg"
 width="512.000000pt" height="512.000000pt" viewBox="0 0 512.000000 512.000000"
 preserveAspectRatio="xMidYMid meet">
<metadata>
Created by potrace 1.11, written by Peter Selinger 2001-2013
</metadata>
<g transform="translate(0.000000,512.000000) scale(0.100000,-0.100000)"
fill="#000000" stroke="none">
<path d="M2605 5108 c-168 -13 -453 -57 -580 -89 -276 -68 -433 -144 -556
-269 -60 -61 -71 -68 -126 -79 -233 -46 -373 -239 -373 -516 0 -125 43 -387
117 -720 l35 -160 -28 -50 c-26 -44 -29 -60 -29 -135 0 -94 12 -126 68 -184
39 -40 78 -61 140 -77 32 -8 47 -17 47 -28 3 -210 51 -336 171 -451 61 -58
130 -95 362 -190 l177 -73 0 -147 c0 -224 -25 -270 -173 -321 -67 -23 -68 -23
-103 -4 -61 33 -110 25 -375 -64 -266 -89 -311 -113 -373 -199 -19 -26 -42
-74 -51 -107 -18 -71 -125 -913 -125 -988 0 -98 65 -193 160 -236 45 -20 58
-21 1570 -21 1512 0 1525 1 1570 21 93 42 150 122 157 224 5 61 -97 910 -118
990 -26 95 -86 174 -167 218 -66 36 -485 176 -540 181 -30 2 -56 -3 -85 -18
l-42 -21 -75 25 c-87 29 -152 85 -163 139 -4 19 -7 100 -7 181 l0 147 163 68
c295 122 352 156 435 262 39 49 86 152 97 208 6 35 14 123 15 180 0 16 7 21
30 23 72 6 146 54 192 125 30 47 33 58 33 132 0 68 -4 88 -27 133 l-28 53 35
137 c87 351 125 637 120 907 -4 196 -15 267 -62 385 l-30 73 37 146 c21 80 40
159 44 175 l7 29 -158 -7 c-87 -4 -171 -9 -188 -11 -16 -2 -73 -7 -125 -10
-270 -15 -785 -93 -893 -134 -16 -6 -31 -11 -35 -11 -4 0 32 38 78 85 l85 85
-105 -2 c-58 -1 -150 -5 -205 -10z"/>
</g>
</svg>
