<?xml version="1.0" standalone="no"?>
<!DOCTYPE svg PUBLIC "-//W3C//DTD SVG 20010904//EN"
 "http://www.w3.org/TR/2001/REC-SVG-20010904/DTD/svg10.dtd">
<svg version="1.0" xmlns="http://www.w3.org/2000/svg"
 width="512.000000pt" height="512.000000pt" viewBox="0 0 512.000000 512.000000"
 preserveAspectRatio="xMidYMid meet">
<metadata>
Created by potrace 1.14, written by Peter Selinger 2001-2017
</metadata>
<g transform="translate(0.000000,512.000000) scale(0.100000,-0.100000)"
fill="#000000" stroke="none">
<path d="M2441 5100 c-29 -11 -67 -30 -85 -43 -17 -14 -342 -337 -723 -718
-1355 -1358 -1571 -1579 -1592 -1622 -85 -180 -22 -379 146 -463 53 -26 67
-29 159 -28 l101 0 0 -165 c1 -91 2 -592 2 -1113 l1 -948 2090 0 2090 0 0
1125 c0 619 1 1125 3 1125 1 0 23 -7 50 -15 118 -36 265 1 342 87 62 68 89
139 89 238 1 140 -3 146 -376 520 l-322 322 -1 472 0 471 113 3 112 3 -2 277
-3 277 -515 0 -514 0 -1 -278 0 -277 113 0 112 0 0 -181 0 -181 -527 527
c-291 291 -544 538 -563 550 -83 52 -207 67 -299 35z"/>
</g>
</svg>
