<?xml version="1.0" standalone="no"?>
<!DOCTYPE svg PUBLIC "-//W3C//DTD SVG 20010904//EN"
 "http://www.w3.org/TR/2001/REC-SVG-20010904/DTD/svg10.dtd">
<svg version="1.0" xmlns="http://www.w3.org/2000/svg"
 width="512.000000pt" height="512.000000pt" viewBox="0 0 512.000000 512.000000"
 preserveAspectRatio="xMidYMid meet">
<metadata>
Created by potrace 1.14, written by Peter Selinger 2001-2017
</metadata>
<g transform="translate(0.000000,512.000000) scale(0.100000,-0.100000)"
fill="#000000" stroke="none">
<path d="M1010 4970 c-263 -45 -473 -153 -661 -340 -140 -138 -233 -289 -294
-477 -43 -130 -55 -223 -50 -393 4 -170 20 -257 76 -402 59 -151 169 -232 314
-231 117 1 142 18 418 292 218 217 246 241 234 206 -17 -48 -57 -215 -65 -270
-3 -22 -7 -233 -9 -469 l-4 -430 -28 -50 c-165 -304 -151 -691 36 -974 54 -82
61 -90 135 -164 194 -193 439 -287 713 -275 68 2 148 12 183 22 34 10 65 16
67 13 2 -2 5 -105 5 -228 1 -124 6 -249 12 -279 15 -84 64 -174 131 -241 237
-236 625 -168 771 136 38 79 45 136 46 378 0 127 2 231 3 233 2 1 45 -7 97
-17 313 -66 638 32 871 262 127 125 237 329 263 488 3 19 8 46 11 60 7 33 7
227 0 265 -23 121 -58 227 -103 310 l-27 50 -1 390 c-1 215 -4 419 -8 455 -9
88 -41 242 -65 314 l-19 58 246 -245 c226 -224 252 -246 307 -267 48 -18 75
-21 135 -18 187 11 285 133 346 429 26 124 25 353 -1 474 -75 351 -304 651
-620 812 -84 43 -203 87 -277 102 -29 6 -64 14 -78 17 -60 13 -261 16 -343 5
-234 -31 -487 -150 -647 -303 l-35 -33 -80 23 c-236 68 -504 82 -738 38 -115
-22 -115 -22 -187 -45 -35 -11 -67 -17 -70 -13 -3 4 -32 30 -65 58 -150 128
-298 202 -505 254 -97 25 -345 36 -440 20z"/>
</g>
</svg>
