<?xml version="1.0" standalone="no"?>
<!DOCTYPE svg PUBLIC "-//W3C//DTD SVG 20010904//EN"
 "http://www.w3.org/TR/2001/REC-SVG-20010904/DTD/svg10.dtd">
<svg version="1.0" xmlns="http://www.w3.org/2000/svg"
 width="512.000000pt" height="512.000000pt" viewBox="0 0 512.000000 512.000000"
 preserveAspectRatio="xMidYMid meet">
<metadata>
Created by potrace 1.14, written by Peter Selinger 2001-2017
</metadata>
<g transform="translate(0.000000,512.000000) scale(0.100000,-0.100000)"
fill="#000000" stroke="none">
<path d="M2670 5017 c-47 -24 -50 -44 -50 -327 l-1 -265 -40 45 c-283 311
-309 337 -343 346 -34 8 -70 -7 -92 -41 -13 -20 -16 -49 -16 -140 0 -63 -3
-116 -6 -116 -4 -1 -126 -2 -272 -3 -289 -2 -304 -5 -316 -59 -7 -32 16 -74
46 -85 10 -4 151 -7 312 -6 261 0 296 2 320 18 41 27 61 65 64 124 2 30 5 56
7 58 3 3 17 -10 32 -28 31 -37 180 -200 265 -290 60 -63 95 -75 141 -52 44 22
49 57 49 331 l0 254 46 -53 c139 -158 192 -212 229 -231 37 -19 57 -21 268
-21 l229 -1 24 28 c30 35 30 59 0 94 l-24 27 -217 1 -217 1 -32 35 c-17 19
-63 71 -102 115 -39 43 -100 112 -135 152 -84 98 -117 115 -169 89z"/>
<path d="M916 4714 c-86 -31 -139 -93 -156 -184 -19 -99 37 -213 125 -254 l35
-17 -1 -252 0 -252 -167 -1 c-175 -1 -206 -7 -243 -50 -41 -47 -43 -62 -45
-334 -1 -146 -2 -268 -3 -271 0 -4 -86 -7 -190 -7 -205 1 -236 -6 -260 -59
-15 -33 -15 -1118 0 -1161 21 -60 42 -65 258 -66 l196 -1 0 -270 c1 -278 3
-292 44 -339 45 -51 31 -50 681 -50 l605 -1 3 -187 c1 -104 -1 -189 -5 -189
-5 -1 -279 -2 -611 -3 -585 -1 -604 -2 -618 -20 -10 -15 -14 -52 -14 -138 0
-115 0 -118 -22 -119 -13 0 -126 -1 -253 -1 -184 0 -235 -2 -253 -14 -21 -14
-22 -19 -22 -199 l0 -185 2560 0 2560 0 0 185 c0 180 -1 185 -22 199 -19 12
-68 15 -253 15 -126 0 -240 0 -252 0 -22 1 -23 4 -23 119 -1 88 -4 122 -16
137 -15 20 -27 20 -624 20 l-610 0 0 190 0 191 593 -1 c325 -1 606 3 623 7 42
11 80 42 101 81 14 27 17 71 17 302 l1 270 196 1 c218 2 238 7 258 67 8 21 11
209 11 585 -1 605 0 597 -58 621 -18 7 -99 13 -218 14 l-189 2 0 276 -1 276
-27 37 c-48 63 -70 69 -259 70 l-168 1 0 253 0 252 24 10 c41 15 99 73 119
120 72 161 -48 341 -223 335 -132 -4 -231 -108 -231 -241 0 -86 41 -155 118
-201 l43 -25 0 -252 0 -252 -1490 0 -1490 0 0 253 0 253 39 19 c134 69 162
268 53 377 -63 63 -165 87 -246 58z"/>
</g>
</svg>
